<?xml version="1.0" ?><svg id="Icons" style="enable-background:new 0 0 32 32;" version="1.1" viewBox="0 0 32 32" xml:space="preserve" xmlns="http://www.w3.org/2000/svg" xmlns:xlink="http://www.w3.org/1999/xlink"><style type="text/css">
	.st0{fill:none;stroke:#000000;stroke-width:2;stroke-linecap:round;stroke-linejoin:round;stroke-miterlimit:10;}
</style><path d="M29,12c0.6,0,1-0.4,1-1V7c0-0.6-0.4-1-1-1h-4c-0.6,0-1,0.4-1,1v0.8L8,4.2V3c0-0.6-0.4-1-1-1H3C2.4,2,2,2.4,2,3v4  c0,0.6,0.4,1,1,1h1v16H3c-0.6,0-1,0.4-1,1v4c0,0.6,0.4,1,1,1h4c0.6,0,1-0.4,1-1v-1.2l16-3.6V25c0,0.6,0.4,1,1,1h4c0.6,0,1-0.4,1-1  v-4c0-0.6-0.4-1-1-1h-1v-8H29z M26,20h-1c-0.6,0-1,0.4-1,1v1.2L8,25.8V25c0-0.6-0.4-1-1-1H6V8h1c0.6,0,1-0.4,1-1V6.2l16,3.6V11  c0,0.6,0.4,1,1,1h1V20z"/></svg>